# xmcd
#
# Track frame offsets:
#	150
#	18375
#	32322
#	45892
#	58014
#	72939
#	92593
#	108334
#	126302
#	137718
#	155258
#	172100
#	187646
#	203470
#	222456
#	237097
#	253067
#	272058
#
# Disc length: 3805 seconds
#
# Revision: 1
# Processed by: cddbd v1.5.2PL0 Copyright (c) Steve Scherf et al.
# Submitted via: EasyCDDAExtractor 15.0.0.1
#
DISCID=ee0edb12
DTITLE=Andrey Kirlian - Amor virtual acustico
DYEAR=1900
DGENRE=
TTITLE0=Passaro de fogo
TTITLE1=Amo noite e dia 
TTITLE2=Amor virtual
TTITLE3=Esqueci
TTITLE4=Inventor dos amores
TTITLE5=De corpo alma e coracao
TTITLE6=Anunciacao
TTITLE7=Amor alem da vida
TTITLE8=Sereia
TTITLE9=Sinais
TTITLE10=Tocando em frete
TTITLE11=Filho
TTITLE12=Fica combinado
TTITLE13=Talisma
TTITLE14=Franguinho na panela
TTITLE15=Essa tal liberdade
TTITLE16=Faz um milagre em mim
TTITLE17=Imagine
EXTD=
EXTT0=
EXTT1=
EXTT2=
EXTT3=
EXTT4=
EXTT5=
EXTT6=
EXTT7=
EXTT8=
EXTT9=
EXTT10=
EXTT11=
EXTT12=
EXTT13=
EXTT14=
EXTT15=
EXTT16=
EXTT17=
PLAYORDER=
